# xmcd CD database file
#
# Track frame offsets:
#	150
#	2877
#	29034
#	49063
#	67443
#	88525
#	110107
#	129936
#	152856
#	172258
#	201460
#	223057
#	225969
#	247653
#
# Disc length: 3844 seconds
#
# Revision: 3
# Processed by: cddbd v1.4PL0 Copyright (c) Steve Scherf et al.
# Submitted via: CDex 1.50Beta5
#
DISCID=cc0f020e
DTITLE=Amuro Namie - Break The Rules
DYEAR=2000
DGENRE=J-pop
TTITLE0=Rule 8am
TTITLE1=No More Tears
TTITLE2=Better Days
TTITLE3=Break The Rules
TTITLE4=Looking For You
TTITLE5=Please Smile Again
TTITLE6=Never Shoulda
TTITLE7=Cross Over
TTITLE8=Girlfriend
TTITLE9=Never End
TTITLE10=Think Of Me
TTITLE11=Rule 8pm
TTITLE12=Himawari
TTITLE13=No More Tears Remix
EXTD=YEAR: 2000
EXTT0=
EXTT1=
EXTT2=
EXTT3=
EXTT4=
EXTT5=
EXTT6=
EXTT7=
EXTT8=
EXTT9=
EXTT10=
EXTT11=
EXTT12=
EXTT13=
PLAYORDER=
